<svg width="16" height="17" viewBox="0 0 16 17" fill="none" xmlns="http://www.w3.org/2000/svg">
<path d="M15.34 12.49L14.34 10.83C14.13 10.46 13.94 9.76 13.94 9.35V6.82C13.94 4.47 12.56 2.44 10.57 1.49C10.05 0.57 9.09 0 7.99 0C6.9 0 5.92 0.59 5.4 1.52C3.45 2.49 2.1 4.5 2.1 6.82V9.35C2.1 9.76 1.91 10.46 1.7 10.82L0.690004 12.49C0.290004 13.16 0.200004 13.9 0.450004 14.58C0.690004 15.25 1.26 15.77 2 16.02C3.94 16.68 5.98 17 8.02 17C10.06 17 12.1 16.68 14.04 16.03C14.74 15.8 15.28 15.27 15.54 14.58C15.8 13.89 15.73 13.13 15.34 12.49Z" fill="#24252C"/>
</svg>
