<svg width="26" height="30" viewBox="0 0 26 30" fill="none" xmlns="http://www.w3.org/2000/svg">
<g filter="url(#filter0_d_1_807)">
<path d="M17.75 3.56V2C17.75 1.59 17.41 1.25 17 1.25C16.59 1.25 16.25 1.59 16.25 2V3.5H9.75V2C9.75 1.59 9.41 1.25 9 1.25C8.59 1.25 8.25 1.59 8.25 2V3.56C5.55 3.81 4.24 5.42 4.04 7.81C4.02 8.1 4.26 8.34 4.54 8.34H21.46C21.75 8.34 21.99 8.09 21.96 7.81C21.76 5.42 20.45 3.81 17.75 3.56Z" fill="#5F33E1"/>
<path opacity="0.4" d="M21 9.83997C21.55 9.83997 22 10.29 22 10.84V17C22 20 20.5 22 17 22H9C5.5 22 4 20 4 17V10.84C4 10.29 4.45 9.83997 5 9.83997H21Z" fill="#5F33E1"/>
<path d="M9.5 15C9.24 15 8.98 14.89 8.79 14.71C8.61 14.52 8.5 14.26 8.5 14C8.5 13.74 8.61 13.48 8.79 13.29C9.07 13.01 9.51 12.92 9.88 13.08C10.01 13.13 10.12 13.2 10.21 13.29C10.39 13.48 10.5 13.74 10.5 14C10.5 14.26 10.39 14.52 10.21 14.71C10.02 14.89 9.76 15 9.5 15Z" fill="#5F33E1"/>
<path d="M13 15C12.74 15 12.48 14.89 12.29 14.71C12.11 14.52 12 14.26 12 14C12 13.74 12.11 13.48 12.29 13.29C12.38 13.2 12.49 13.13 12.62 13.08C12.99 12.92 13.43 13.01 13.71 13.29C13.89 13.48 14 13.74 14 14C14 14.26 13.89 14.52 13.71 14.71C13.66 14.75 13.61 14.79 13.56 14.83C13.5 14.87 13.44 14.9 13.38 14.92C13.32 14.95 13.26 14.97 13.2 14.98C13.13 14.99 13.07 15 13 15Z" fill="#5F33E1"/>
<path d="M16.5 15C16.24 15 15.98 14.89 15.79 14.71C15.61 14.52 15.5 14.26 15.5 14C15.5 13.74 15.61 13.48 15.79 13.29C15.89 13.2 15.99 13.13 16.12 13.08C16.3 13 16.5 12.98 16.7 13.02C16.76 13.03 16.82 13.05 16.88 13.08C16.94 13.1 17 13.13 17.06 13.17C17.11 13.21 17.16 13.25 17.21 13.29C17.39 13.48 17.5 13.74 17.5 14C17.5 14.26 17.39 14.52 17.21 14.71C17.16 14.75 17.11 14.79 17.06 14.83C17 14.87 16.94 14.9 16.88 14.92C16.82 14.95 16.76 14.97 16.7 14.98C16.63 14.99 16.56 15 16.5 15Z" fill="#5F33E1"/>
<path d="M9.5 18.5C9.37 18.5 9.24 18.47 9.12 18.42C8.99 18.37 8.89 18.3 8.79 18.21C8.61 18.02 8.5 17.76 8.5 17.5C8.5 17.24 8.61 16.98 8.79 16.79C8.89 16.7 8.99 16.63 9.12 16.58C9.3 16.5 9.5 16.48 9.7 16.52C9.76 16.53 9.82 16.55 9.88 16.58C9.94 16.6 10 16.63 10.06 16.67C10.11 16.71 10.16 16.75 10.21 16.79C10.39 16.98 10.5 17.24 10.5 17.5C10.5 17.76 10.39 18.02 10.21 18.21C10.16 18.25 10.11 18.3 10.06 18.33C10 18.37 9.94 18.4 9.88 18.42C9.82 18.45 9.76 18.47 9.7 18.48C9.63 18.49 9.57 18.5 9.5 18.5Z" fill="#5F33E1"/>
<path d="M13 18.4999C12.74 18.4999 12.48 18.3899 12.29 18.2099C12.11 18.0199 12 17.7599 12 17.4999C12 17.2399 12.11 16.98 12.29 16.79C12.66 16.42 13.34 16.42 13.71 16.79C13.89 16.98 14 17.2399 14 17.4999C14 17.7599 13.89 18.0199 13.71 18.2099C13.52 18.3899 13.26 18.4999 13 18.4999Z" fill="#5F33E1"/>
<path d="M16.5 18.4999C16.24 18.4999 15.98 18.3899 15.79 18.2099C15.61 18.0199 15.5 17.7599 15.5 17.4999C15.5 17.2399 15.61 16.98 15.79 16.79C16.16 16.42 16.84 16.42 17.21 16.79C17.39 16.98 17.5 17.2399 17.5 17.4999C17.5 17.7599 17.39 18.0199 17.21 18.2099C17.02 18.3899 16.76 18.4999 16.5 18.4999Z" fill="#5F33E1"/>
</g>
<defs>
<filter id="filter0_d_1_807" x="-3" y="0" width="32" height="32" filterUnits="userSpaceOnUse" color-interpolation-filters="sRGB">
<feFlood flood-opacity="0" result="BackgroundImageFix"/>
<feColorMatrix in="SourceAlpha" type="matrix" values="0 0 0 0 0 0 0 0 0 0 0 0 0 0 0 0 0 0 127 0" result="hardAlpha"/>
<feOffset dy="4"/>
<feGaussianBlur stdDeviation="2"/>
<feComposite in2="hardAlpha" operator="out"/>
<feColorMatrix type="matrix" values="0 0 0 0 0 0 0 0 0 0 0 0 0 0 0 0 0 0 0.25 0"/>
<feBlend mode="normal" in2="BackgroundImageFix" result="effect1_dropShadow_1_807"/>
<feBlend mode="normal" in="SourceGraphic" in2="effect1_dropShadow_1_807" result="shape"/>
</filter>
</defs>
</svg>
