<?xml version="1.0" encoding="UTF-8"?>
<!DOCTYPE svg PUBLIC "-//W3C//DTD SVG 1.1//EN" "http://www.w3.org/Graphics/SVG/1.1/DTD/svg11.dtd">
<svg xmlns="http://www.w3.org/2000/svg" version="1.1" width="24px" height="24px" style="shape-rendering:geometricPrecision; text-rendering:geometricPrecision; image-rendering:optimizeQuality; fill-rule:evenodd; clip-rule:evenodd" xmlns:xlink="http://www.w3.org/1999/xlink">
<g><path style="opacity:0.713" fill="#9165ff" d="M 7.5,-0.5 C 10.1667,-0.5 12.8333,-0.5 15.5,-0.5C 15.5,0.833333 15.5,2.16667 15.5,3.5C 12.8333,3.5 10.1667,3.5 7.5,3.5C 7.5,2.16667 7.5,0.833333 7.5,-0.5 Z"/></g>
<g><path style="opacity:0.866" fill="#9265fe" d="M 15.5,3.5 C 17.1137,1.9254 19.1137,1.25873 21.5,1.5C 21.5,8.83333 21.5,16.1667 21.5,23.5C 14.8333,23.5 8.16667,23.5 1.5,23.5C 1.5,16.1667 1.5,8.83333 1.5,1.5C 3.16667,1.5 4.83333,1.5 6.5,1.5C 6.5,2.5 6.5,3.5 6.5,4.5C 9.7131,4.81 12.7131,4.47667 15.5,3.5 Z"/></g>
</svg>
